<svg xmlns="http://www.w3.org/2000/svg" viewBox="0 0 1200 675"><defs><linearGradient id="bg" x1="0" y1="0" x2="1" y2="0"><stop stop-color="#06101f"/><stop offset=".55" stop-color="#173f70"/><stop offset="1" stop-color="#071426"/></linearGradient><linearGradient id="fade"><stop stop-color="#fff" stop-opacity=".75"/><stop offset="1" stop-color="#fff" stop-opacity=".05"/></linearGradient></defs><rect width="1200" height="675" fill="url(#bg)"/><g opacity=".32" fill="url(#fade)"><circle cx="155" cy="270" r="55"/><path d="M95 340Q155 295 215 340L240 555H70Z"/><circle cx="330" cy="245" r="52"/><path d="M270 315Q330 275 390 315L415 555H245Z"/><circle cx="870" cy="255" r="53"/><path d="M810 325Q870 282 930 325L955 555H785Z"/><circle cx="1040" cy="285" r="50"/><path d="M985 350Q1040 310 1095 350L1115 555H965Z"/></g><g transform="translate(470 130)"><circle cx="130" cy="105" r="72" fill="#5b3829" stroke="#d9b75d" stroke-width="5"/><path d="M58 205Q130 155 202 205L235 505H25Z" fill="#1d2733" stroke="#d9b75d" stroke-width="5"/><path d="M100 170L130 220L160 170" fill="none" stroke="#d9b75d" stroke-width="6"/><rect x="111" y="222" width="38" height="64" rx="5" fill="#c9c9c9" stroke="#fff" stroke-width="3"/><circle cx="130" cy="235" r="4" fill="#071426"/><line x1="119" y1="250" x2="141" y2="250" stroke="#071426" stroke-width="3"/><line x1="119" y1="260" x2="141" y2="260" stroke="#071426" stroke-width="3"/></g><text x="600" y="585" text-anchor="middle" fill="#fff" font-family="Georgia,serif" font-size="50" font-weight="700">VETERANS SHOULD NOT BECOME INVISIBLE</text><text x="600" y="632" text-anchor="middle" fill="#d9b75d" font-family="Arial,sans-serif" font-size="28" font-weight="800">SEE THE VETERAN • HEAR THE STORY</text></svg>