<svg xmlns="http://www.w3.org/2000/svg" viewBox="0 0 1200 675"><defs><linearGradient id="b" x1="0" y1="0" x2="1" y2="0"><stop stop-color="#11243c"/><stop offset=".52" stop-color="#173f70"/><stop offset="1" stop-color="#d0a95a"/></linearGradient></defs><rect width="1200" height="675" fill="url(#b)"/><g opacity=".25" fill="#fff"><rect x="770" y="170" width="120" height="325"/><rect x="910" y="110" width="95" height="385"/><rect x="1025" y="220" width="130" height="275"/></g><path d="M0 500H1200V675H0Z" fill="#09111c"/><g stroke="#d9b75d" stroke-width="5"><g fill="#27303a" transform="translate(140 150)"><circle cx="100" cy="85" r="55"/><path d="M50 80Q100 15 150 80V100H50Z"/><path d="M58 145H142L170 350H30Z"/></g><g fill="#e8e8e8" transform="translate(405 160)"><circle cx="100" cy="85" r="55"/><path d="M55 145H145L160 340H40Z"/><rect x="60" y="330" width="28" height="100" fill="#222"/><rect x="112" y="330" width="28" height="100" fill="#222"/></g><g fill="#d7c5ac" transform="translate(680 160)"><circle cx="100" cy="85" r="55"/><path d="M55 145H145L160 340H40Z"/><rect x="60" y="330" width="28" height="100" fill="#202734"/><rect x="112" y="330" width="28" height="100" fill="#202734"/></g><g fill="#c6cbd2" transform="translate(930 160)"><circle cx="100" cy="85" r="55"/><path d="M55 145H145L160 340H40Z"/><rect x="60" y="330" width="28" height="100" fill="#1b2430"/><rect x="112" y="330" width="28" height="100" fill="#1b2430"/></g></g><path d="M320 330H430" stroke="#fff" stroke-width="10" stroke-linecap="round"/><path d="M400 305L435 330L400 355" fill="none" stroke="#fff" stroke-width="10" stroke-linecap="round" stroke-linejoin="round"/><text x="600" y="590" text-anchor="middle" fill="#fff" font-family="Georgia,serif" font-size="48" font-weight="700">THE UNIFORM COMES OFF</text><text x="600" y="640" text-anchor="middle" fill="#d9b75d" font-family="Arial,sans-serif" font-size="28" font-weight="800">THE SERVICE DOESN’T</text></svg>